<?xml version="1.0" encoding="UTF-8"?>
<!DOCTYPE svg PUBLIC "-//W3C//DTD SVG 1.1//EN" "http://www.w3.org/Graphics/SVG/1.1/DTD/svg11.dtd">
<!-- Creator: CorelDRAW X8 -->
<svg xmlns="http://www.w3.org/2000/svg" xml:space="preserve" width="75.959mm" height="18.57mm" version="1.1" style="shape-rendering:geometricPrecision; text-rendering:geometricPrecision; image-rendering:optimizeQuality; fill-rule:evenodd; clip-rule:evenodd"
viewBox="0 0 7596 1857"
 xmlns:xlink="http://www.w3.org/1999/xlink">
 <defs>
  <style type="text/css">
   <![CDATA[
    .fil0 {fill:#4659A5}
    .fil1 {fill:#4659A5;fill-rule:nonzero}
   ]]>
  </style>
 </defs>
 <g id="Слой_x0020_1">
  <metadata id="CorelCorpID_0Corel-Layer"/>
  <g id="_1784491997712">
   <g>
    <path class="fil0" d="M4464 74l0 -74 -813 0c-62,4 -251,-20 -298,192l0 0 -221 865 0 0 851 0c158,-2 227,-1 272,-166l0 0 209 -817zm-1072 147c43,-194 215,-172 273,-176l0 0 760 0 -208 815c-42,150 -105,150 -249,151l0 0 -778 0 202 -790z"/>
    <polygon class="fil0" points="4327,190 4327,104 4076,104 4004,388 4144,388 4128,450 3989,450 3936,658 4208,658 "/>
    <path class="fil0" d="M3607 952l341 0c127,-1 182,-1 219,-133l0 0 0 -1 0 -94 0 -1 0 0 -502 0 -58 229z"/>
    <polygon class="fil0" points="3682,658 3867,658 3889,572 3889,450 3889,450 3734,450 3682,658 "/>
    <polygon class="fil0" points="3266,952 3538,952 3597,720 3437,720 3453,658 3613,658 3629,594 3629,450 3394,450 "/>
    <path class="fil0" d="M3682 104c-50,4 -201,-16 -239,154l0 0 -33 127 0 0 526 0 42 -166 0 -115 -296 0z"/>
   </g>
   <g>
    <polygon class="fil1" points="133,1850 133,1498 0,1498 0,1410 388,1410 388,1498 255,1498 255,1850 "/>
    <polygon class="fil1" points="516,1850 516,1410 839,1410 839,1495 634,1495 634,1584 830,1584 830,1668 634,1668 634,1762 845,1762 845,1850 "/>
    <polygon class="fil1" points="956,1850 1122,1621 968,1410 1116,1410 1205,1547 1297,1410 1435,1410 1278,1619 1441,1850 1292,1850 1194,1695 1094,1850 "/>
    <polygon class="fil1" points="1688,1672 1688,1850 1566,1850 1566,1410 1688,1410 1688,1580 1833,1580 1833,1410 1955,1410 1955,1850 1833,1850 1833,1672 "/>
    <path class="fil1" d="M2546 1673c-6,51 -25,92 -56,124 -40,40 -95,60 -165,60 -71,0 -126,-20 -166,-60 -31,-32 -50,-73 -56,-124l126 0c4,24 11,44 22,59 16,23 41,34 74,34 32,0 57,-11 73,-34 11,-15 18,-35 22,-59l126 0zm-443 -91c8,-49 26,-88 56,-119 40,-39 95,-59 166,-59 70,0 125,20 165,59 30,31 48,70 56,119l-127 0c-4,-22 -11,-41 -21,-55 -16,-23 -41,-34 -73,-34 -33,0 -58,11 -74,34 -10,14 -18,33 -22,55l-126 0z"/>
    <polygon class="fil1" points="2753,1850 2753,1498 2619,1498 2619,1410 3007,1410 3007,1498 2875,1498 2875,1850 "/>
    <path class="fil1" d="M3162 1850l0 -440 201 0c57,0 101,12 130,36 30,24 44,59 44,105 0,45 -14,80 -43,105 -30,25 -70,38 -122,38l-88 0 0 156 -122 0zm122 -243l54 0c26,0 45,-4 57,-14 13,-9 19,-24 19,-44 0,-20 -6,-34 -18,-43 -12,-9 -32,-14 -58,-14l-54 0 0 115z"/>
    <path class="fil1" d="M4110 1673c-6,51 -25,92 -57,124 -39,40 -94,60 -165,60 -70,0 -125,-20 -165,-60 -31,-32 -50,-73 -57,-124l126 0c4,24 12,44 22,59 17,23 42,34 74,34 33,0 57,-11 74,-34 10,-15 18,-35 21,-59l127 0zm-443 -91c7,-49 26,-88 56,-119 39,-39 95,-59 165,-59 71,0 126,20 165,59 31,31 49,70 56,119l-126 0c-4,-22 -11,-41 -21,-55 -17,-23 -41,-34 -74,-34 -32,0 -57,11 -74,34 -10,14 -17,33 -21,55l-126 0z"/>
    <polygon class="fil1" points="4525,1410 4525,1580 4380,1580 4380,1410 4258,1410 4258,1850 4380,1850 4380,1672 4525,1672 4525,1850 4647,1850 4647,1410 "/>
    <path class="fil1" d="M5643 1854l-113 0 0 -294 -82 190 -78 0 -82 -190 0 294 -107 0 0 -444 131 0 100 219 100 -219 131 0 0 444zm132 0l0 -444 305 0 0 85 -192 0 0 78 177 0 0 84 -177 0 0 112 192 0 0 85 -305 0zm544 0l0 -359 -133 0 0 -85 380 0 0 85 -133 0 0 359 -114 0zm772 -6l-112 0 0 -292 -173 292 -105 0 0 -444 112 0 0 264 160 -264 118 0 0 444zm472 -223c10,9 18,19 24,32 6,13 9,28 9,46 0,44 -17,79 -52,104 -35,25 -84,37 -149,37 -30,0 -58,-2 -85,-8 -26,-5 -51,-12 -73,-21l0 -99 10 0c15,10 35,20 60,30 25,10 49,15 73,15 30,0 54,-6 72,-17 18,-10 27,-27 27,-49 0,-19 -6,-33 -20,-43 -13,-9 -36,-13 -70,-13l-65 0 0 -80 61 0c29,0 49,-4 62,-12 13,-9 20,-21 20,-38 0,-15 -7,-26 -22,-33 -14,-6 -33,-10 -57,-10 -14,0 -27,2 -39,4 -12,3 -24,7 -36,11 -10,4 -20,8 -30,13 -9,4 -16,8 -21,10l-10 0 0 -92c13,-5 34,-12 64,-19 30,-7 61,-10 94,-10 58,0 101,9 130,28 29,19 43,46 43,79 0,26 -7,47 -23,66 -16,18 -36,30 -61,36l0 5c9,1 20,5 32,10 12,5 23,11 32,18z"/>
    <polygon class="fil0" points="4779,1592 4983,1592 4983,1669 4779,1669 "/>
   </g>
  </g>
 </g>
</svg>
