<svg width="82" height="82" viewBox="0 0 32 32" fill="white" xmlns="http://www.w3.org/2000/svg"><path d="M16 0C7.16344 0 0 7.16344 0 16V16C0 24.8366 7.16344 32 16 32V32C24.8366 32 32 24.8366 32 16V16C32 7.16344 24.8366 0 16 0V0ZM9.36674 7.51C9.36578 6.30796 10.34 5.333 11.542 5.333V5.333C13.172 5.333 13.73 5.369 13.766 5.484C13.792 5.573 13.808 7.307 13.808 9.349L13.8003 12.2121C13.7994 12.5381 14.1849 12.7112 14.428 12.494V12.494C15.308 11.718 16.048 11.447 17.449 11.395C18.371 11.369 18.746 11.405 19.392 11.635C20.809 12.109 21.809 13.083 22.33 14.52C22.533 15.083 22.559 15.671 22.596 20.234L22.6196 23.0974C22.6297 24.3291 21.6341 25.333 20.4023 25.333V25.333C19.1777 25.333 18.185 24.3403 18.185 23.1157V21.172C18.185 17.073 18.175 17.021 17.899 16.521C17.508 15.86 17.086 15.557 16.42 15.485C15.285 15.36 14.498 15.745 14.05 16.673C13.836 17.1 13.81 17.548 13.8 21.147C13.7932 22.0867 13.7845 22.9618 13.7768 23.6593C13.7652 24.7092 13.24 25.3191 12.19 25.3314C11.9887 25.3338 11.7754 25.335 11.555 25.335V25.335C10.3499 25.335 9.373 24.3581 9.373 23.153V15.335L9.36674 7.51Z"></path></svg>